<svg xmlns="http://www.w3.org/2000/svg" width="23" height="27" viewBox="0 0 23 27">
    <g fill="none" fill-rule="evenodd">
        <g fill="#F04037" fill-rule="nonzero">
            <g>
                <g>
                    <g>
                        <g>
                            <path d="M8.47 14.4H.53c-.293 0-.53-.248-.53-.554V.554C0 .248.237 0 .53 0h7.94c.293 0 .53.248.53.554v13.292c0 .306-.237.554-.53.554zM8.47 25.2H.53c-.293 0-.53-.26-.53-.579V17.68c0-.32.237-.579.53-.579h7.94c.293 0 .53.26.53.579v6.942c0 .32-.237.579-.53.579zM21.07 8.1h-7.94c-.293 0-.53-.26-.53-.579V.58c0-.32.237-.579.53-.579h7.94c.293 0 .53.26.53.579V7.52c0 .32-.237.579-.53.579zM21.07 25.2h-7.94c-.293 0-.53-.248-.53-.554V11.354c0-.306.237-.554.53-.554h7.94c.293 0 .53.248.53.554v13.292c0 .306-.237.554-.53.554z" transform="translate(-270 -1210) translate(0 1017.9) translate(225 150.3) translate(25.2 23.4) translate(20.7 18.9)"/>
                        </g>
                    </g>
                </g>
            </g>
        </g>
    </g>
</svg>
