<svg xmlns="http://www.w3.org/2000/svg" width="28" height="27" viewBox="0 0 28 27">
    <g fill="none" fill-rule="evenodd">
        <g fill="#413E65" fill-rule="nonzero">
            <g>
                <g>
                    <g>
                        <g>
                            <g>
                                <path d="M24.065 0H2.935C1.314 0 0 1.343 0 3v13.2c0 .795.31 1.559.86 2.121.55.563 1.296.879 2.075.879h5.588l4.52 5.775c.11.142.28.225.458.225s.347-.083.458-.225l4.518-5.775h5.588c1.621 0 2.935-1.343 2.935-3V3c0-1.657-1.314-3-2.935-3zm-9.328 12.6H6.863c-.31 0-.562-.201-.562-.45s.252-.45.563-.45h7.875c.31 0 .562.201.562.45s-.252.45-.563.45zm6.275-5.4H6.888c-.325 0-.588-.201-.588-.45s.263-.45.588-.45h14.124c.325 0 .588.201.588.45s-.263.45-.588.45z" transform="translate(-524 -1484) translate(0 1017.9) translate(225 150.3) translate(256.5 273.6) translate(25.2 23.4) translate(18 18.9)"/>
                            </g>
                        </g>
                    </g>
                </g>
            </g>
        </g>
    </g>
</svg>
