<svg xmlns="http://www.w3.org/2000/svg" width="12" height="13" viewBox="0 0 12 13">
    <g fill="none" fill-rule="evenodd">
        <g fill="#FFF" fill-rule="nonzero">
            <g>
                <g>
                    <g>
                        <g>
                            <g>
                                <path d="M5.4 12.343c.763-.002 1.415-.653 1.543-1.543H3.857c.128.89.78 1.541 1.543 1.543zM10.75 10.362c-.013-.018-1.3-1.888-1.3-3.439v-2.77C9.45 1.86 7.637 0 5.4 0S1.35 1.86 1.35 4.154v2.77c0 1.55-1.287 3.42-1.3 3.438-.059.085-.066.196-.02.288.046.092.139.15.24.15h10.26c.101 0 .194-.058.24-.15.046-.092.039-.203-.02-.288z" transform="translate(-144 -2943) translate(-2.7 2601) translate(119.7 190.8) translate(0 122.4) translate(19.8 20.7) translate(8.1 8.1)"/>
                            </g>
                        </g>
                    </g>
                </g>
            </g>
        </g>
    </g>
</svg>
