<svg xmlns="http://www.w3.org/2000/svg" width="26" height="21" viewBox="0 0 26 21">
    <g fill="none" fill-rule="evenodd">
        <g fill="#5454D4" fill-rule="nonzero">
            <g>
                <g>
                    <g>
                        <path d="M24.3 2.296c-.911.409-1.873.664-2.886.817C22.427 2.5 23.237 1.53 23.591.357c-.962.562-2.025.97-3.19 1.225C19.492.612 18.175 0 16.758 0c-2.734 0-4.961 2.245-4.961 5.001 0 .408.05.765.152 1.123C7.846 5.92 4.15 3.929 1.67.868c-.405.765-.659 1.581-.659 2.5 0 1.735.861 3.266 2.228 4.185-.81-.051-1.57-.256-2.278-.613v.051c0 2.45 1.721 4.491 4 4.95-.406.102-.861.153-1.317.153-.304 0-.658-.05-.962-.102.658 1.99 2.48 3.47 4.658 3.47-1.722 1.327-3.848 2.144-6.177 2.144-.405 0-.81 0-1.164-.051C2.228 18.984 4.81 19.8 7.644 19.8c9.164 0 14.175-7.655 14.175-14.289v-.663c.962-.663 1.823-1.531 2.481-2.552z" transform="translate(-829 -3746) translate(220.5 3530.7) translate(342 179.1) translate(267.3 36.9)"/>
                    </g>
                </g>
            </g>
        </g>
    </g>
</svg>
